<svg width="435" height="744" viewBox="0 0 435 744" fill="none" xmlns="http://www.w3.org/2000/svg">
<g clip-path="url(#clip0_677_2144)">
<path d="M375.667 430.138C377.862 438.709 383.008 445.384 389.668 448.342C392.468 449.631 395.571 450.162 398.749 450.086C409.42 449.783 417.366 445.915 421.68 439.012C426.296 431.655 426.448 421.188 422.21 411.631C415.474 396.689 391.257 397.447 389.441 397.523C385.43 398.964 382.1 401.391 379.603 404.729C374.759 411.176 373.246 420.96 375.667 430.138Z" stroke="#1E1E1D" stroke-width="2" stroke-miterlimit="10" stroke-linecap="round"/>
<path d="M386.716 297.554L375.818 308.173C375.667 308.325 375.44 308.552 375.213 308.856C373.85 310.449 373.094 311.207 372.488 311.435C367.493 316.289 363.331 320.84 362.423 326.604C362.044 329.107 362.196 331.914 363.028 335.403C364.996 343.594 369.234 350.724 372.412 355.275C373.699 357.171 376.499 358.157 378.694 358.992L379.148 359.143C384.445 361.115 390.197 361.798 395.646 361.191C397.462 360.964 398.522 360.205 399.959 359.219C400.338 358.916 400.792 358.612 401.246 358.309C403.895 356.565 406.089 355.048 408.057 353.682C416.079 348.07 425.085 341.016 431.139 331.61C434.09 327.059 434.923 321.902 433.712 316.213C431.366 305.518 422.133 295.886 417.668 293.155C417.063 292.776 416.457 292.548 415.928 292.397C409.722 290.349 402.154 291.411 395.419 292.321L393.905 292.548C393.602 292.624 393.224 292.624 392.77 292.624C391.937 292.7 391.105 292.776 390.5 293.003C390.197 293.155 390.046 293.231 389.97 293.307C389.97 293.307 389.894 293.383 389.818 293.534C389.743 293.686 389.591 293.914 389.44 294.217C388.683 295.582 387.851 296.492 386.716 297.554Z" stroke="#1E1E1D" stroke-width="2" stroke-miterlimit="10" stroke-linecap="round"/>
<path d="M378.77 360.584L378.316 360.433C375.894 359.523 372.867 358.461 371.278 356.185C368.024 351.483 363.634 344.201 361.667 335.782C360.758 332.065 360.607 329.031 360.986 326.377C362.121 319.55 367.645 314.165 371.656 310.145L371.883 309.917H372.11C372.564 309.69 373.624 308.401 374.154 307.87C374.456 307.49 374.683 307.263 374.835 307.111L385.732 296.492C386.565 295.734 387.17 294.975 387.776 294.217L106.554 423.842L93.1593 436.737C94.0675 445.232 94.0675 446.066 93.3107 457.747L94.9756 472.765C95.9594 474.206 104.814 484.142 114.955 501.966C125.02 519.639 140.004 548.31 154.232 584.566C140.08 548.386 126.534 521.156 114.955 501.966C103.679 483.156 95.127 472.992 95.0513 472.916L94.8999 472.765L93.6891 454.333C93.6134 454.409 93.5377 460.022 93.462 460.098C89.1484 466.545 70.6071 477.998 69.8503 478.453C70.0774 478.302 90.7376 465.331 93.462 460.098C93.8404 459.415 93.008 457.671 93.235 456.685L93.6891 454.333C94.6729 446.9 92.8566 433.627 92.3269 430.289C88.77 431.73 75.8289 436.509 60.2392 429.152C76.7371 436.964 90.6619 431.124 92.3269 430.289L108.219 406.169V323.191C108.219 319.93 104.814 315.151 100.803 314.317C97.8514 313.634 95.354 315.379 93.5377 319.247C87.9375 331.61 40.033 386.752 24.1405 397.371C13.9239 404.197 14.5294 419.443 15.2105 437.116C15.5889 446.521 15.9673 456.305 14.9078 466.09C13.6969 477.847 10.6698 490.589 6.05338 503.939C1.51267 517.06 -0.152259 530.713 1.13428 544.442L8.7778 627.648L13.6212 678.542L18.389 743.241H247.468C248.149 740.207 252.765 726.858 282.885 677.404C289.772 666.103 297.264 652.905 303.091 641.831C292.194 610.051 242.473 575.616 242.019 575.312C242.549 575.691 291.21 609.899 303.091 641.831C313.611 621.807 320.27 606.486 323.979 597.005C327.763 587.448 332.909 578.498 339.417 570.382L344.261 564.314L398.446 524.342C397.917 524.418 397.463 524.418 397.008 524.418C392.922 524.418 388.987 522.521 385.354 518.805C377.483 510.689 373.472 495.671 376.197 484.597C377.786 478.226 381.873 473.827 388.457 471.475V449.479C381.57 446.218 376.348 439.315 374.078 430.517C371.581 420.884 373.17 410.72 378.165 403.97C385.884 376.209 391.484 366.273 393.906 362.936C393.225 363.012 392.543 363.012 391.787 363.012C387.473 363.012 383.008 362.177 378.77 360.584Z" fill="#F4F2F4" stroke="#1E1E1D" stroke-width="2" stroke-miterlimit="10"/>
<path d="M389.592 472.765C383.235 474.888 379.299 478.984 377.786 484.976C375.137 495.595 378.997 510.006 386.489 517.743C389.289 520.625 393.83 523.811 399.581 522.597C403.743 521.687 407.754 518.577 411.614 513.42C425.387 494.685 425.69 491.12 420.922 481.411C416.003 471.248 408.738 470.11 396.251 471.399C393.981 471.627 391.862 472.082 390.046 472.689L389.592 472.765Z" stroke="#1E1E1D" stroke-width="2" stroke-miterlimit="10" stroke-linecap="round"/>
<path d="M382.177 38.9862V529.424C382.177 531.169 382.025 532.837 381.798 534.506C381.723 534.885 381.647 535.34 381.571 535.719C381.193 537.767 380.587 539.815 379.831 541.711C379.679 542.091 379.528 542.47 379.376 542.849C378.317 545.276 376.955 547.552 375.441 549.6C375.29 549.827 375.138 549.979 374.987 550.207C373.928 551.572 372.717 552.861 371.43 554.075C370.9 554.53 370.371 554.985 369.841 555.44C369.614 555.592 369.463 555.743 369.236 555.895C368.63 556.35 368.025 556.805 367.419 557.185C367.344 557.185 367.344 557.26 367.268 557.26C366.89 557.488 366.511 557.716 366.133 558.019C365.679 558.246 365.3 558.55 364.846 558.777C364.392 559.005 363.938 559.232 363.484 559.46C363.257 559.536 363.03 559.688 362.803 559.763C362.576 559.915 362.349 559.991 362.122 560.067C361.441 560.37 360.684 560.674 360.003 560.901C359.549 561.053 359.019 561.205 358.565 561.356C358.338 561.432 358.111 561.508 357.808 561.584C357.051 561.811 356.295 561.963 355.538 562.115C355.311 562.191 355.008 562.191 354.781 562.266C354.554 562.342 354.251 562.342 354.024 562.418C353.494 562.494 352.965 562.57 352.435 562.646C352.057 562.722 351.678 562.722 351.3 562.722C350.997 562.722 350.694 562.797 350.392 562.797C349.786 562.797 349.256 562.873 348.651 562.873H144.697C144.092 562.873 143.562 562.873 142.957 562.797C142.654 562.797 142.351 562.797 142.049 562.722C141.443 562.646 140.838 562.646 140.232 562.57C140.459 562.57 140.686 562.646 140.914 562.646C124.189 560.749 111.172 546.49 111.172 529.272V38.9862C111.172 21.0859 125.248 6.37129 142.957 5.4611C143.562 5.4611 144.092 5.38525 144.697 5.38525H348.651C349.256 5.38525 349.786 5.38525 350.392 5.4611C350.694 5.4611 350.997 5.4611 351.3 5.53695C351.602 5.53695 351.905 5.6128 352.208 5.6128C369.084 7.35732 382.177 21.6169 382.177 38.9862Z" fill="white" stroke="white" stroke-width="2" stroke-miterlimit="10"/>
<path d="M348.726 0.758301H144.697C123.658 0.758301 106.555 17.8243 106.555 38.9861V529.424C106.555 550.51 123.658 567.652 144.697 567.652H348.726C369.764 567.652 386.868 550.586 386.868 529.424V38.9861C386.792 17.8243 369.764 0.758301 348.726 0.758301ZM371.429 554.075C370.9 554.53 370.37 554.985 369.84 555.44C369.613 555.592 369.462 555.743 369.235 555.895C368.629 556.35 368.024 556.805 367.418 557.184C367.343 557.184 367.343 557.26 367.267 557.26C366.889 557.488 366.51 557.715 366.132 558.019C365.678 558.246 365.299 558.55 364.845 558.777C364.391 559.005 363.937 559.232 363.483 559.46C363.256 559.536 363.029 559.688 362.802 559.763C362.575 559.915 362.348 559.991 362.121 560.067C361.44 560.37 360.683 560.674 360.002 560.901C359.548 561.053 359.018 561.204 358.564 561.356C358.337 561.432 358.11 561.508 357.807 561.584C357.051 561.811 356.294 561.963 355.537 562.115C355.31 562.19 355.007 562.19 354.78 562.266C354.553 562.342 354.25 562.342 354.023 562.418C353.494 562.494 352.964 562.57 352.434 562.646C352.056 562.721 351.677 562.721 351.299 562.721C350.996 562.721 350.694 562.797 350.391 562.797C349.785 562.797 349.256 562.873 348.65 562.873H144.697C144.091 562.873 143.561 562.873 142.956 562.797C142.653 562.797 142.351 562.797 142.048 562.721C141.442 562.646 140.837 562.646 140.232 562.57C140.459 562.57 140.686 562.646 140.913 562.646C124.188 560.749 111.171 546.49 111.171 529.272V38.9861C111.171 21.0858 125.247 6.37111 142.956 5.46092C143.561 5.46092 144.091 5.38507 144.697 5.38507H348.65C349.256 5.38507 349.785 5.38507 350.391 5.46092C350.694 5.46092 350.996 5.46092 351.299 5.53677C351.602 5.53677 351.904 5.61262 352.207 5.61262C369.083 7.35714 382.176 21.6167 382.176 38.9861V529.424C382.176 531.168 382.024 532.837 381.797 534.506C381.722 534.885 381.646 535.34 381.57 535.719C381.192 537.767 380.587 539.815 379.83 541.711C379.678 542.091 379.527 542.47 379.376 542.849C378.316 545.276 376.954 547.552 375.44 549.6C375.289 549.827 375.138 549.979 374.986 550.206C373.927 551.572 372.716 552.861 371.429 554.075Z" fill="white" stroke="#262626" stroke-width="2" stroke-miterlimit="10"/>
<path d="M260.788 24.1199H230.895C230.139 24.1199 229.533 23.5131 229.533 22.7546V21.9961C229.533 21.2376 230.139 20.6309 230.895 20.6309H260.788C261.545 20.6309 262.151 21.2376 262.151 21.9961V22.7546C262.075 23.5131 261.545 24.1199 260.788 24.1199Z" fill="white" stroke="#262626" stroke-width="2" stroke-miterlimit="10"/>
<path d="M350.013 18.5068H349.861H349.559C349.256 18.5068 348.953 18.5068 348.65 18.5068H319.211C317.547 18.5827 316.184 19.8721 316.033 21.5408C316.033 21.6166 316.033 21.7683 316.033 21.92V21.9959C315.655 30.6426 308.541 37.5449 299.762 37.5449H249.512H243.836H193.585C184.882 37.5449 177.768 30.6426 177.314 21.9959V21.92C177.314 21.7683 177.314 21.6925 177.314 21.5408C177.163 19.8721 175.801 18.5827 174.136 18.5068H144.697C144.394 18.5068 144.091 18.5068 143.789 18.5068H143.486H143.335C132.588 19.1895 124.264 28.1396 124.264 38.9101V529.272C124.264 539.891 132.513 548.841 143.108 549.675C143.183 549.675 143.335 549.675 143.41 549.675H143.486H143.562H143.713H143.789C144.167 549.675 144.47 549.675 144.848 549.675H243.987H249.663H348.802C349.18 549.675 349.483 549.675 349.861 549.675H349.937H350.088H350.164H350.24C350.315 549.675 350.391 549.675 350.542 549.675C361.062 548.841 369.386 539.891 369.386 529.272V38.986C369.159 28.1396 360.759 19.2653 350.013 18.5068Z" fill="white" stroke="#191918" stroke-width="2" stroke-miterlimit="10"/>
<path d="M375.667 430.138C377.862 438.709 383.008 445.384 389.668 448.342C392.468 449.631 395.571 450.162 398.749 450.086C409.42 449.783 417.366 445.915 421.68 439.012C426.296 431.655 426.448 421.188 422.21 411.631C415.474 396.689 391.257 397.447 389.441 397.523C385.43 398.964 382.1 401.391 379.603 404.729C374.759 411.176 373.246 420.96 375.667 430.138Z" fill="#F4F2F4" stroke="#1E1E1D" stroke-width="2" stroke-miterlimit="10"/>
<path d="M386.718 297.554L375.82 308.173C375.669 308.325 375.442 308.552 375.214 308.856C373.852 310.449 373.095 311.207 372.49 311.435C367.495 316.289 363.333 320.84 362.425 326.604C362.046 329.107 362.198 331.914 363.03 335.403C364.998 343.594 369.236 350.724 372.414 355.275C373.701 357.171 376.501 358.157 378.696 358.992L379.15 359.143C384.447 361.116 390.199 361.798 395.648 361.191C397.464 360.964 398.523 360.205 399.961 359.219C400.34 358.916 400.794 358.612 401.248 358.309C403.897 356.565 406.091 355.048 408.059 353.682C416.081 348.07 425.087 341.016 431.141 331.61C434.092 327.059 434.925 321.902 433.714 316.213C431.368 305.518 422.135 295.886 417.67 293.155C417.065 292.776 416.459 292.548 415.929 292.397C409.724 290.349 402.156 291.411 395.421 292.321L393.907 292.548C393.604 292.624 393.226 292.624 392.772 292.624C391.939 292.7 391.107 292.776 390.502 293.003C390.199 293.155 390.047 293.231 389.972 293.307C389.972 293.307 389.896 293.383 389.82 293.534C389.745 293.686 389.593 293.914 389.442 294.217C388.685 295.582 387.853 296.492 386.718 297.554Z" fill="#F4F2F4" stroke="#1E1E1D" stroke-width="2" stroke-miterlimit="10"/>
<path d="M389.593 472.765C383.236 474.889 379.301 478.985 377.788 484.977C375.139 495.596 378.998 510.007 386.491 517.743C389.291 520.626 393.831 523.811 399.583 522.598C403.745 521.688 407.756 518.578 411.616 513.42C425.389 494.685 425.692 491.121 420.924 481.412C416.005 471.248 408.74 470.11 396.253 471.4C393.983 471.627 391.864 472.083 390.048 472.689L389.593 472.765Z" fill="#F4F2F4" stroke="#1E1E1D" stroke-width="2" stroke-miterlimit="10"/>
</g>
<defs>
<clipPath id="clip0_677_2144">
<rect width="435" height="744" fill="white"/>
</clipPath>
</defs>
</svg>
